<svg id="Capa_1" enable-background="new 0 0 512 512" height="512" viewBox="0 0 512 512" width="512" xmlns="http://www.w3.org/2000/svg"><g><path d="m274.114 474.265c-5.466 3.308-11.729 5.056-18.114 5.056-6.387 0-12.652-1.749-18.118-5.059-11.167-6.759-69.692-43.077-124.937-94.177-76.218-70.5-114.226-138.547-112.912-202.184 1.679-81.323 69.433-146.488 150.764-145.203 39.966.632 77.174 17.138 104.171 45.014.568.586 1.497.586 2.064 0 26.996-27.875 64.202-44.381 104.166-45.014 81.329-1.288 149.085 63.873 150.769 145.194 1.317 63.64-36.69 131.69-112.912 202.193-55.245 51.101-113.769 87.418-124.941 94.18z" fill="#f9c6da"/><path d="m481.007 181.095c0-64.851-52.572-117.423-117.423-117.423-45.18 0-84.399 25.516-104.036 62.923-1.512 2.879-5.587 2.879-7.098 0-19.636-37.407-58.856-62.923-104.036-62.923-64.851 0-117.423 52.572-117.423 117.423 0 128.105 200.347 252.98 222.942 266.656 1.272.77 2.859.77 4.131 0 22.597-13.676 222.943-138.551 222.943-266.656z" fill="#dd5790"/><path d="m394.427 67.764c27.611 21.485 45.374 55.031 45.374 92.727 0 123.853-187.267 244.686-220.118 264.931 16.922 11.681 29.507 19.457 34.252 22.329 1.272.77 2.859.77 4.131 0 22.595-13.676 222.942-138.551 222.942-266.656-.001-54.178-36.692-99.786-86.581-113.331z" fill="#da387d"/></g></svg>